<?xml version="1.0" encoding="UTF-8" standalone="no"?>
<!DOCTYPE svg PUBLIC "-//W3C//DTD SVG 1.1//EN" "http://www.w3.org/Graphics/SVG/1.1/DTD/svg11.dtd">
<!-- Generated by Microsoft Visio, SVG Export master_boot_record_s132.svg Page-1 -->
<svg xmlns="http://www.w3.org/2000/svg" xmlns:xlink="http://www.w3.org/1999/xlink" xmlns:ev="http://www.w3.org/2001/xml-events"
		width="4.12249in" height="4.73239in" viewBox="0 0 296.819 340.732" xml:space="preserve" color-interpolation-filters="sRGB"
		class="st11">
	<style type="text/css">
	<![CDATA[
		.st1 {fill:#cbd5e0;stroke:#000000;stroke-linecap:round;stroke-linejoin:round;stroke-width:0.24}
		.st2 {fill:#000000;font-family:Arial;font-size:0.916672em}
		.st3 {fill:#88b7e4;stroke:#000000;stroke-linecap:round;stroke-linejoin:round;stroke-width:0.24}
		.st4 {fill:#d3d2c3;stroke:#000000;stroke-linecap:round;stroke-linejoin:round;stroke-width:0.24}
		.st5 {fill:none;stroke:none;stroke-linecap:round;stroke-linejoin:round;stroke-width:0.72}
		.st6 {fill:#e9e9e1;stroke:#000000;stroke-linecap:round;stroke-linejoin:round;stroke-width:0.24}
		.st7 {font-size:1em}
		.st8 {marker-start:url(#mrkr13-34);stroke:#000000;stroke-linecap:round;stroke-linejoin:round;stroke-width:0.72}
		.st9 {fill:#000000;fill-opacity:1;stroke:#000000;stroke-opacity:1;stroke-width:0.33333333333333}
		.st10 {fill:#000000;font-family:Arial;font-size:1.00001em}
		.st11 {fill:none;fill-rule:evenodd;font-size:12px;overflow:visible;stroke-linecap:square;stroke-miterlimit:3}
	]]>
	</style>

	<defs id="Markers">
		<g id="lend13">
			<path d="M 3 1 L 0 0 L 3 -1 L 3 1 " style="stroke:none"/>
		</g>
		<marker id="mrkr13-34" class="st9" refX="8.5" orient="auto" markerUnits="strokeWidth" overflow="visible">
			<use xlink:href="#lend13" transform="scale(3) "/>
		</marker>
	</defs>
	<g>
		<title>Page-1</title>
		<g id="shape1-1" transform="translate(0.12,-67.0394)">
			<title>Rectangle.22</title>
			<desc>SoftDevice</desc>
			<rect x="0" y="241.321" width="153.071" height="99.4108" class="st1"/>
			<text x="49.94" y="296.33" class="st2">SoftDevice</text>		</g>
		<g id="shape3-4" transform="translate(0.12,-181.757)">
			<title>Rectangle.26</title>
			<desc>Application</desc>
			<rect x="0" y="241.519" width="153.071" height="99.2126" class="st3"/>
			<text x="49.63" y="296.43" class="st2">Application</text>		</g>
		<g id="shape8-7" transform="translate(0.12,-166.45)">
			<title>Rectangle.3</title>
			<desc>Application Vector Table</desc>
			<rect x="0" y="325.586" width="153.071" height="15.146" class="st4"/>
			<text x="16.92" y="336.11" class="st2">Application Vector Table</text>		</g>
		<g id="shape9-10" transform="translate(0.397302,-13.1811)">
			<title>Rectangle.1</title>
			<desc>SoftDevice Vector Table</desc>
			<rect x="0" y="326.559" width="152.504" height="14.1732" class="st4"/>
			<text x="16.95" y="334.95" class="st2">SoftDevice Vector Table</text>		</g>
		<g id="shape17-13" transform="translate(160.555,-169.919)">
			<title>Sheet.17</title>
			<desc>APP_CODE_BASE</desc>
			<rect x="0" y="330.564" width="135.905" height="10.1678" class="st5"/>
			<text x="4" y="338.95" class="st2">APP_CODE_BASE</text>		</g>
		<g id="shape18-16" transform="translate(160.555,-285.307)">
			<title>Sheet.18</title>
			<desc>BOOTLOADERADDR</desc>
			<rect x="0" y="330.564" width="127.864" height="10.1678" class="st5"/>
			<text x="4" y="338.95" class="st2">BOOTLOADERADDR</text>		</g>
		<g id="shape12-19" transform="translate(0.12,-281.084)">
			<title>Rectangle.12</title>
			<desc>Bootloader Vector Table</desc>
			<rect x="0" y="323.875" width="153.071" height="16.857" class="st4"/>
			<text x="17.22" y="335.25" class="st2">Bootloader Vector Table</text>		</g>
		<g id="shape13-22" transform="translate(0.12,-298.092)">
			<title>Rectangle.13</title>
			<desc>(Optional) Bootloader</desc>
			<rect x="0" y="298.212" width="153.071" height="42.5197" class="st6"/>
			<text x="52.39" y="318.17" class="st2">(Optional) <tspan x="49.93" dy="1.2em" class="st7">Bootloader</tspan></text>		</g>
		<g id="shape15-26" transform="translate(160.555,-56.4851)">
			<title>Sheet.15</title>
			<desc>0x00001000</desc>
			<rect x="0" y="330.564" width="82.4283" height="10.1678" class="st5"/>
			<text x="4" y="338.95" class="st2">0x00001000</text>		</g>
		<g id="shape21-29" transform="translate(156.525,400.21) scale(1,-1)">
			<title>Sheet.21</title>
			<path d="M6.12 340.73 L6.48 340.73 L120.03 340.73" class="st8"/>
		</g>
		<g id="shape22-35" transform="translate(156.525,515.013) scale(1,-1)">
			<title>Sheet.22</title>
			<path d="M6.12 340.73 L6.48 340.73 L122.45 340.73" class="st8"/>
		</g>
		<g id="shape23-40" transform="translate(156.525,629.731) scale(1,-1)">
			<title>Sheet.23</title>
			<path d="M6.12 340.73 L6.48 340.73 L77.21 340.73" class="st8"/>
		</g>
		<g id="shape24-45" transform="translate(0.12,-6.90791)">
			<title>Rectangle.24</title>
			<desc>MBR MBR Vector Table</desc>
			<rect x="0" y="295.766" width="153.071" height="44.9661" class="st6"/>
			<text x="64.31" y="316.95" class="st2">MBR <tspan x="31.6" dy="1.2em" class="st7">MBR </tspan>Vector Table</text>		</g>
		<g id="shape25-49" transform="translate(160.522,-11.5834)">
			<title>Sheet.25</title>
			<desc>0x00000000</desc>
			<rect x="0" y="330.564" width="82.4283" height="10.1678" class="st5"/>
			<text x="4" y="338.95" class="st2">0x00000000</text>		</g>
		<g id="shape26-52" transform="translate(156.492,674.633) scale(1,-1)">
			<title>Sheet.26</title>
			<path d="M6.12 340.73 L6.48 340.73 L77.61 340.73" class="st8"/>
		</g>
		<g id="shape27-57" transform="translate(0.12,-51.8933)">
			<title>Rectangle.27</title>
			<desc>SoftDevice Vector Table</desc>
			<rect x="0" y="325.586" width="153.071" height="15.146" class="st4"/>
			<text x="11.84" y="338.19" class="st10">SoftDevice Vector Table</text>		</g>
		<g id="shape29-60" transform="translate(0.12,-242.22)">
			<title>Rectangle.29</title>
			<desc>MBR Parameter storage</desc>
			<rect x="0" y="309.702" width="153.071" height="31.0302" class="st6"/>
			<text x="17.24" y="326.52" class="st2">MBR Parameter storage</text>		</g>
		<g id="shape30-63" transform="translate(160.572,-246.401)">
			<title>Sheet.30</title>
			<desc>MBRPARAMADDR</desc>
			<rect x="0" y="330.564" width="127.864" height="10.1678" class="st5"/>
			<text x="4" y="338.95" class="st2">MBRPARAMADDR</text>		</g>
		<g id="shape31-66" transform="translate(156.542,439.116) scale(1,-1)">
			<title>Sheet.31</title>
			<path d="M6.12 340.73 L6.48 340.73 L120.03 340.73" class="st8"/>
		</g>
	</g>
</svg>
