<svg version="1.1" width="304" height="176" viewBox="0 0 152 88" xmlns="http://www.w3.org/2000/svg">

  <!-- background -->
  <rect width="100%" height="100%" fill="white" />

  <g transform="translate(12, 12)">
    <!-- subpixel grid -->
    <path stroke="#ccc" stroke-width="0.5"
      d="M -16,-16 l 0,100
        m 8,-100 l 0,100
        m 8,-100 l 0,100
        m 8,-100 l 0,100
        m 8,-100 l 0,100
        m 8,-100 l 0,100
        m 8,-100 l 0,100
        m 8,-100 l 0,100
        m 8,-100 l 0,100
        m 8,-100 l 0,100
        m 8,-100 l 0,100
        m 8,-100 l 0,100
        m 8,-100 l 0,100
        m 8,-100 l 0,100
        m 8,-100 l 0,100
        m 8,-100 l 0,100
        m 8,-100 l 0,100
        m 8,-100 l 0,100
        m 8,-100 l 0,100
        m 8,-100 l 0,100"/>
    <path stroke="#ccc" stroke-width="0.5"
      d="M -16,-16 l 200,0
         m -200,16 l 200,0
         m -200,16 l 200,0
         m -200,16 l 200,0
         m -200,16 l 200,0
         m -200,16 l 200,0
         m -200,16 l 200,0"/>

    <!-- pixel grid -->
    <path stroke="black" stroke-width="0.5"
      d="M -12,0 L 300,0
         M -12,64 L 300,64
         M 0,-12 L 0,112
         M 64,-12 L 64,112
         M 128,-12 L 128,112"/>


    <!-- label -->
    <text x="1" y="-2" font-family="sans-serif" font-size="10">0</text>
    <text x="65" y="-2" font-family="sans-serif" font-size="10">1</text>

    <!-- pixels (1) -->
    <circle fill="#ccc" cx="4"  cy="8" r="2"/>
    <circle fill="#ccc" cx="12" cy="8" r="2"/>
    <circle fill="#ccc" cx="20" cy="8" r="2"/>
    <circle fill="#ccc" cx="28" cy="8" r="2"/>
    <circle fill="#ccc" cx="36" cy="8" r="2"/>
    <circle fill="#000" cx="44" cy="8" r="2"/>
    <circle fill="#000" cx="52" cy="8" r="2"/>
    <circle fill="#000" cx="60" cy="8" r="2"/>
    <circle fill="#ccc" cx="4"  cy="24" r="2"/>
    <circle fill="#ccc" cx="12" cy="24" r="2"/>
    <circle fill="#ccc" cx="20" cy="24" r="2"/>
    <circle fill="#ccc" cx="28" cy="24" r="2"/>
    <circle fill="#000" cx="36" cy="24" r="2"/>
    <circle fill="#000" cx="44" cy="24" r="2"/>
    <circle fill="#000" cx="52" cy="24" r="2"/>
    <circle fill="#000" cx="60" cy="24" r="2"/>
    <circle fill="#ccc" cx="4"  cy="40" r="2"/>
    <circle fill="#ccc" cx="12" cy="40" r="2"/>
    <circle fill="#ccc" cx="20" cy="40" r="2"/>
    <circle fill="#000" cx="28" cy="40" r="2"/>
    <circle fill="#000" cx="36" cy="40" r="2"/>
    <circle fill="#000" cx="44" cy="40" r="2"/>
    <circle fill="#000" cx="52" cy="40" r="2"/>
    <circle fill="#000" cx="60" cy="40" r="2"/>
    <circle fill="#ccc" cx="4"  cy="56" r="2"/>
    <circle fill="#ccc" cx="12" cy="56" r="2"/>
    <circle fill="#000" cx="20" cy="56" r="2"/>
    <circle fill="#000" cx="28" cy="56" r="2"/>
    <circle fill="#000" cx="36" cy="56" r="2"/>
    <circle fill="#000" cx="44" cy="56" r="2"/>
    <circle fill="#000" cx="52" cy="56" r="2"/>
    <circle fill="#000" cx="60" cy="56" r="2"/>

    <!-- pixels (2) -->
    <circle fill="#000" cx="68"  cy="8" r="2"/>
    <circle fill="#000" cx="76"  cy="8" r="2"/>
    <circle fill="#000" cx="84"  cy="8" r="2"/>
    <circle fill="#000" cx="92"  cy="8" r="2"/>
    <circle fill="#000" cx="100" cy="8" r="2"/>
    <circle fill="#000" cx="108" cy="8" r="2"/>
    <circle fill="#000" cx="116" cy="8" r="2"/>
    <circle fill="#000" cx="124" cy="8" r="2"/>
    <circle fill="#000" cx="68"  cy="24" r="2"/>
    <circle fill="#000" cx="76"  cy="24" r="2"/>
    <circle fill="#000" cx="84"  cy="24" r="2"/>
    <circle fill="#000" cx="92"  cy="24" r="2"/>
    <circle fill="#000" cx="100" cy="24" r="2"/>
    <circle fill="#000" cx="108" cy="24" r="2"/>
    <circle fill="#000" cx="116" cy="24" r="2"/>
    <circle fill="#000" cx="124" cy="24" r="2"/>
    <circle fill="#000" cx="68"  cy="40" r="2"/>
    <circle fill="#000" cx="76"  cy="40" r="2"/>
    <circle fill="#000" cx="84"  cy="40" r="2"/>
    <circle fill="#000" cx="92"  cy="40" r="2"/>
    <circle fill="#000" cx="100" cy="40" r="2"/>
    <circle fill="#000" cx="108" cy="40" r="2"/>
    <circle fill="#000" cx="116" cy="40" r="2"/>
    <circle fill="#000" cx="124" cy="40" r="2"/>
    <circle fill="#000" cx="68"  cy="56" r="2"/>
    <circle fill="#000" cx="76"  cy="56" r="2"/>
    <circle fill="#000" cx="84"  cy="56" r="2"/>
    <circle fill="#000" cx="92"  cy="56" r="2"/>
    <circle fill="#000" cx="100" cy="56" r="2"/>
    <circle fill="#000" cx="108" cy="56" r="2"/>
    <circle fill="#000" cx="116" cy="56" r="2"/>
    <circle fill="#000" cx="124" cy="56" r="2"/>
  </g>
</svg>
